<svg width="269" height="166" fill="none" xmlns="http://www.w3.org/2000/svg"><path d="M3.888 7V5.506H.567l-.18-.513L3.951.655h.621v4.257h.981v.594h-.981V7h-.684zM1.242 4.912h2.646V1.663L1.242 4.912zm9.935 1.251c-.492.63-1.134.945-1.926.945s-1.434-.312-1.926-.936c-.486-.63-.729-1.404-.729-2.322 0-.906.246-1.674.738-2.304C7.832.91 8.477.592 9.27.592s1.431.315 1.917.945c.486.624.73 1.395.73 2.313 0 .906-.247 1.677-.739 2.313zm-3.303-.468c.36.51.825.765 1.395.765.57 0 1.03-.252 1.377-.756.354-.51.531-1.128.531-1.854 0-.714-.18-1.326-.54-1.836-.354-.516-.816-.774-1.386-.774s-1.032.255-1.386.765c-.354.504-.53 1.119-.53 1.845 0 .714.18 1.329.54 1.845zm9.737.468c-.492.63-1.134.945-1.926.945s-1.434-.312-1.926-.936c-.486-.63-.73-1.404-.73-2.322 0-.906.247-1.674.739-2.304.498-.636 1.143-.954 1.935-.954s1.43.315 1.917.945c.486.624.729 1.395.729 2.313 0 .906-.246 1.677-.738 2.313zm-3.303-.468c.36.51.825.765 1.395.765.57 0 1.029-.252 1.377-.756.354-.51.53-1.128.53-1.854 0-.714-.18-1.326-.54-1.836-.353-.516-.815-.774-1.385-.774-.57 0-1.032.255-1.386.765-.354.504-.531 1.119-.531 1.845 0 .714.18 1.329.54 1.845zM2.799 43.108c-.99 0-1.773-.375-2.349-1.125l.513-.459c.51.624 1.125.936 1.845.936.39 0 .717-.114.981-.342.264-.228.396-.528.396-.9 0-.384-.162-.681-.486-.891-.324-.216-.75-.324-1.278-.324h-.405l-.144-.423 1.989-2.241H.783V36.7h4.023v.522l-1.98 2.196c.6.048 1.095.222 1.485.522.396.294.594.717.594 1.269 0 .552-.204 1.008-.612 1.368-.402.354-.9.531-1.494.531zm7.86-.945c-.493.63-1.134.945-1.926.945s-1.434-.312-1.926-.936c-.486-.63-.73-1.404-.73-2.322 0-.906.247-1.674.739-2.304.498-.636 1.143-.954 1.935-.954s1.43.315 1.917.945c.486.624.729 1.395.729 2.313 0 .906-.247 1.677-.739 2.313zm-3.303-.468c.36.51.825.765 1.395.765.57 0 1.029-.252 1.377-.756.354-.51.53-1.128.53-1.854 0-.714-.18-1.326-.54-1.836-.353-.516-.815-.774-1.385-.774-.57 0-1.032.255-1.386.765-.354.504-.531 1.119-.531 1.845 0 .714.18 1.329.54 1.845zm9.736.468c-.492.63-1.134.945-1.926.945s-1.434-.312-1.926-.936c-.486-.63-.729-1.404-.729-2.322 0-.906.246-1.674.738-2.304.498-.636 1.143-.954 1.935-.954s1.431.315 1.917.945c.486.624.73 1.395.73 2.313 0 .906-.247 1.677-.739 2.313zm-3.303-.468c.36.51.825.765 1.395.765.57 0 1.03-.252 1.377-.756.354-.51.531-1.128.531-1.854 0-.714-.18-1.326-.54-1.836-.354-.516-.816-.774-1.386-.774s-1.032.255-1.386.765c-.354.504-.53 1.119-.53 1.845 0 .714.18 1.329.54 1.845zM.432 86v-.549l2.286-2.016c.492-.432.834-.792 1.026-1.08a1.6 1.6 0 00.288-.9c0-.36-.123-.651-.369-.873a1.295 1.295 0 00-.9-.333c-.342 0-.645.087-.909.261-.258.174-.519.447-.783.819l-.522-.378c.306-.456.63-.792.972-1.008.342-.222.774-.333 1.296-.333.564 0 1.029.171 1.395.513.372.336.558.765.558 1.287 0 .432-.117.816-.351 1.152-.234.336-.648.768-1.242 1.296l-1.683 1.494h3.339V86H.432zm10.095-.837c-.492.63-1.134.945-1.926.945s-1.434-.312-1.926-.936c-.486-.63-.73-1.404-.73-2.322 0-.906.247-1.674.739-2.304.498-.636 1.143-.954 1.935-.954s1.43.315 1.917.945c.486.624.729 1.395.729 2.313 0 .906-.246 1.677-.738 2.313zm-3.303-.468c.36.51.825.765 1.395.765.57 0 1.029-.252 1.377-.756.354-.51.53-1.128.53-1.854 0-.714-.18-1.326-.54-1.836-.353-.516-.815-.774-1.385-.774-.57 0-1.032.255-1.386.765-.354.504-.531 1.119-.531 1.845 0 .714.18 1.329.54 1.845zm9.736.468c-.492.63-1.134.945-1.926.945s-1.434-.312-1.926-.936c-.486-.63-.729-1.404-.729-2.322 0-.906.246-1.674.738-2.304.498-.636 1.143-.954 1.935-.954s1.431.315 1.917.945c.486.624.73 1.395.73 2.313 0 .906-.247 1.677-.739 2.313zm-3.303-.468c.36.51.825.765 1.395.765.57 0 1.03-.252 1.377-.756.354-.51.531-1.128.531-1.854 0-.714-.18-1.326-.54-1.836-.354-.516-.816-.774-1.386-.774s-1.032.255-1.386.765c-.354.504-.53 1.119-.53 1.845 0 .714.18 1.329.54 1.845zM1.611 126v-5.607l-1.188.369-.171-.576 1.539-.531h.522V126h-.702zm6.754-.837c-.492.63-1.134.945-1.926.945s-1.434-.312-1.926-.936c-.486-.63-.73-1.404-.73-2.322 0-.906.247-1.674.739-2.304.498-.636 1.143-.954 1.935-.954s1.43.315 1.917.945c.486.624.729 1.395.729 2.313 0 .906-.246 1.677-.738 2.313zm-3.303-.468c.36.51.825.765 1.395.765.57 0 1.029-.252 1.377-.756.354-.51.53-1.128.53-1.854 0-.714-.18-1.326-.54-1.836-.353-.516-.815-.774-1.385-.774-.57 0-1.032.255-1.386.765-.354.504-.531 1.119-.531 1.845 0 .714.18 1.329.54 1.845zm9.736.468c-.492.63-1.134.945-1.926.945s-1.434-.312-1.926-.936c-.486-.63-.729-1.404-.729-2.322 0-.906.246-1.674.738-2.304.498-.636 1.143-.954 1.935-.954s1.431.315 1.917.945c.486.624.73 1.395.73 2.313 0 .906-.247 1.677-.739 2.313zm-3.303-.468c.36.51.825.765 1.395.765.57 0 1.03-.252 1.377-.756.354-.51.531-1.128.531-1.854 0-.714-.18-1.326-.54-1.836-.354-.516-.816-.774-1.386-.774s-1.032.255-1.386.765c-.354.504-.53 1.119-.53 1.845 0 .714.18 1.329.54 1.845z" fill="#878E9C"/><path stroke="#E6EBF0" d="M31.5 2.5h237v163h-237zm-.5 40h238M65.5 166V2m34 164V2m34 164V2m34 164V2m35 164V2m66 164V2m-35 164V2M31 85.5h238m-238 41h238"/><path d="M31 146.5c6.833-13.667 25.6-47.1 60-55.5 43-10.5 76 19.5 105-9s21-71.5 72-69" stroke="#FFD02C" stroke-width="5"/></svg>